<svg width="600" height="564" viewBox="0 0 600 564" fill="none" xmlns="http://www.w3.org/2000/svg" role="img" aria-labelledby="title desc">
    <title id="title">Sin comentarios sociales</title>
    <desc id="desc">Ilustracion ligera para el estado vacio de la bandeja social.</desc>
    <path d="M136.209 440.228C179.229 321.59 -5.333 311.895 107.125 226.704C125.666 213.616 146.873 200.043 152.811 178.23C158.386 157.629 148.691 136.18 148.57 114.73C164.687 -1.484 303.684 24.449 378.818 70.862C409.235 86.131 443.53 106.732 447.044 140.542C448.377 153.751 444.62 167.445 448.983 180.048C472.493 226.582 543.991 205.012 555.867 290.931C562.532 386.544 467.767 375.032 444.378 434.896" fill="#F4F6F9"/>
    <rect x="128" y="164" width="344" height="238" rx="34" fill="#fff" stroke="#DDE3EA" stroke-width="6"/>
    <path d="M184 238h232M184 292h154M184 346h196" stroke="#CBD5E1" stroke-width="14" stroke-linecap="round"/>
    <circle cx="422" cy="182" r="56" fill="#EAF3FF" stroke="#BFDBFE" stroke-width="6"/>
    <path d="M398 183l17 17 34-39" stroke="#2563EB" stroke-width="13" stroke-linecap="round" stroke-linejoin="round"/>
    <path d="M111.73 213.616L56.107 230.339C46.897 233.126 37.323 227.915 34.536 218.706C31.264 204.164 15.026 175.928 37.687 168.899L93.31 152.176C102.52 149.389 112.093 154.6 114.881 163.81C118.153 178.352 134.391 206.587 111.73 213.616Z" fill="#FFE945"/>
    <path d="M520.966 296.141C523.026 302.564 524.48 309.108 525.813 315.652C526.541 319.772 527.146 323.892 528.358 327.891C529.085 330.315 530.418 332.981 533.205 333.466C536.356 333.951 539.507 331.648 541.931 330.073C548.596 325.589 554.655 320.378 560.835 315.288C561.562 314.682 561.441 313.349 560.835 312.743C552.474 303.897 541.446 297.474 529.57 294.687C527.268 294.202 526.298 297.717 528.601 298.201C539.992 300.868 550.293 306.806 558.291 315.288C552.959 317.106 547.505 321.59 541.931 325.71C540.356 326.922 538.659 328.013 536.962 328.982C536.599 329.103 536.356 329.346 535.993 329.467C535.75 329.588 535.872 329.588 535.387 329.709C535.144 329.83 534.902 329.83 534.66 329.952C534.539 329.952 534.418 329.952 534.296 330.073C534.175 330.073 533.569 329.952 533.448 329.952C533.327 329.83 533.084 329.588 532.842 329.346C532.721 329.103 532.6 328.861 532.479 328.618C532.115 327.77 531.994 327.528 531.873 327.164C530.782 323.529 530.297 319.651 529.57 315.894C528.237 308.987 526.662 302.079 524.602 295.293C523.753 292.991 520.239 293.96 520.966 296.141Z" fill="#0F172A"/>
    <path d="M580.346 343.039L509.817 354.673C496.729 356.854 484.247 347.887 482.066 334.799C479.036 314.803 468.493 284.75 497.335 278.933L567.864 267.3C580.951 265.118 593.433 274.086 595.614 287.174C598.644 307.169 609.187 337.222 580.346 343.039Z" fill="#9ED5F0"/>
    <circle cx="236" cy="39" r="40" fill="#FEAABC"/>
    <path d="M250.364 29.175C247.092 23.237 238.73 22.631 234.004 27.236C231.702 29.539 230.853 32.689 231.217 35.719C230.247 34.507 228.914 33.538 227.339 33.053C224.915 32.326 222.007 32.811 219.947 34.265C217.765 35.84 216.19 38.264 216.311 41.051C216.432 44.687 219.099 47.353 222.007 49.291C224.188 50.746 226.733 51.715 229.278 52.563C232.792 53.775 236.306 54.502 239.942 55.108C241.154 55.351 242.245 55.472 243.456 55.593C244.426 55.714 245.274 54.624 245.274 53.775C245.274 53.412 245.153 53.169 245.032 52.927C245.395 48.807 247.94 45.292 249.637 41.657C251.697 37.779 252.666 33.295 250.364 29.175Z" fill="#0F172A"/>
    <path d="M82 454c54 52 129 78 218 78s164-26 218-78" stroke="#E5E7EB" stroke-width="7" stroke-linecap="round"/>
</svg>
